# xmcd CD database file
#
# Track frame offsets:
#	150
#	20274
#	37549
#	57673
#
# Disc length: 997 seconds
#
# Revision: 1
# Processed by: cddbd v1.5.2PL0 Copyright (c) Steve Scherf et al.
# Submitted via: CDex 1.70beta2
#
DISCID=2503e304
DTITLE=霧島若歌 - Dreamy Butterfly
DYEAR=2010
DGENRE=Vocal
TTITLE0=Dreamy Butterfly
TTITLE1=skyward
TTITLE2=Dreamy Butterfly(instrumental)
TTITLE3=skyward(instrumental)
EXTD=YEAR: 2010
EXTT0=
EXTT1=
EXTT2=
EXTT3=
PLAYORDER=
